<svg width="83" height="24" viewBox="0 0 83 24" fill="none" xmlns="http://www.w3.org/2000/svg">
<path d="M9.04688 12.8281C9.10938 12.8385 9.17188 12.8438 9.23438 12.8438C9.30729 12.8438 9.38021 12.8438 9.45312 12.8438C10.3594 12.8438 11.2135 12.651 12.0156 12.2656C12.8281 11.8698 13.5365 11.3698 14.1406 10.7656C14.7448 10.1615 15.2188 9.48958 15.5625 8.75C15.9167 8.01042 16.0938 7.29167 16.0938 6.59375C16.0938 6.09375 16 5.61979 15.8125 5.17188C15.6354 4.72396 15.349 4.33333 14.9531 4C14.5677 3.66667 14.0677 3.40104 13.4531 3.20312C12.849 3.00521 12.125 2.90625 11.2812 2.90625C10.3333 2.90625 9.51562 2.99479 8.82812 3.17188C8.15104 3.34896 7.5625 3.57812 7.0625 3.85938C6.57292 4.14062 6.15625 4.46354 5.8125 4.82812C5.47917 5.19271 5.1875 5.56771 4.9375 5.95312C4.69792 6.33854 4.47917 6.71354 4.28125 7.07812C4.08333 7.44271 3.875 7.76562 3.65625 8.04688C3.44792 8.32812 3.21354 8.55729 2.95312 8.73438C2.69271 8.91146 2.36979 9 1.98438 9C1.46354 9 1.07292 8.86979 0.8125 8.60938C0.552083 8.33854 0.421875 7.96354 0.421875 7.48438C0.421875 7.03646 0.541667 6.55208 0.78125 6.03125C1.03125 5.51042 1.38021 4.98958 1.82812 4.46875C2.28646 3.94792 2.84375 3.44792 3.5 2.96875C4.15625 2.47917 4.89062 2.05208 5.70312 1.6875C6.52604 1.3125 7.42188 1.01562 8.39062 0.796875C9.35938 0.567708 10.3854 0.453125 11.4688 0.453125C12.5312 0.453125 13.5469 0.588542 14.5156 0.859375C15.4948 1.13021 16.3594 1.53646 17.1094 2.07812C17.8594 2.60938 18.4531 3.28125 18.8906 4.09375C19.3385 4.90625 19.5625 5.85417 19.5625 6.9375C19.5625 7.66667 19.4271 8.36458 19.1562 9.03125C18.8958 9.6875 18.5417 10.3073 18.0938 10.8906C17.6458 11.4635 17.1198 11.9948 16.5156 12.4844C15.9219 12.9635 15.2865 13.3906 14.6094 13.7656C13.9323 14.1406 13.2344 14.4583 12.5156 14.7188C11.8073 14.9792 11.1198 15.1667 10.4531 15.2812C10.5469 15.7708 10.6979 16.3229 10.9062 16.9375C11.125 17.5417 11.3854 18.1198 11.6875 18.6719C12 19.2135 12.3438 19.6771 12.7188 20.0625C13.0938 20.4479 13.4896 20.6562 13.9062 20.6875C13.9896 20.6979 14.0677 20.7031 14.1406 20.7031C14.2135 20.7031 14.2865 20.7031 14.3594 20.7031C15.1198 20.7031 15.7969 20.5781 16.3906 20.3281C16.9844 20.0781 17.4792 19.8021 17.875 19.5C18.3438 19.1562 18.75 18.7552 19.0938 18.2969C19.4167 17.9323 19.7448 17.75 20.0781 17.75C20.2865 17.75 20.4635 17.8229 20.6094 17.9688C20.7552 18.1146 20.8281 18.3125 20.8281 18.5625C20.8281 18.8021 20.75 19.0833 20.5938 19.4062C20.4479 19.7188 20.1927 20.0469 19.8281 20.3906C18.7552 21.401 17.7031 22.1406 16.6719 22.6094C15.651 23.0677 14.6823 23.2969 13.7656 23.2969C13.0156 23.2969 12.3229 23.0833 11.6875 22.6562C11.0521 22.2292 10.474 21.651 9.95312 20.9219C9.43229 20.1927 8.95833 19.3438 8.53125 18.375C8.10417 17.3958 7.72396 16.3646 7.39062 15.2812C7.20312 15.7083 7.01042 16.2135 6.8125 16.7969C6.61458 17.3698 6.40104 17.9635 6.17188 18.5781C5.94271 19.1927 5.70312 19.8021 5.45312 20.4062C5.20312 21 4.92708 21.5365 4.625 22.0156C4.32292 22.4844 4 22.8646 3.65625 23.1562C3.3125 23.4479 2.9375 23.5938 2.53125 23.5938C2.19792 23.5938 1.92708 23.5417 1.71875 23.4375C1.51042 23.3333 1.34896 23.2031 1.23438 23.0469C1.11979 22.8906 1.03646 22.7188 0.984375 22.5312C0.942708 22.3438 0.921875 22.1667 0.921875 22C0.921875 21.7604 0.953125 21.5156 1.01562 21.2656C1.07812 21.0156 1.16667 20.7812 1.28125 20.5625L5.89062 12.125C6.28646 11.4167 6.68229 10.7344 7.07812 10.0781C7.48438 9.41146 7.875 8.82292 8.25 8.3125C8.63542 7.80208 8.99479 7.39583 9.32812 7.09375C9.67188 6.78125 9.97917 6.625 10.25 6.625C10.3229 6.625 10.4115 6.64062 10.5156 6.67188C10.6198 6.69271 10.7135 6.73958 10.7969 6.8125C10.8802 6.875 10.9531 6.97396 11.0156 7.10938C11.0781 7.23438 11.1094 7.39583 11.1094 7.59375C11.1094 7.79167 11.0521 8.06771 10.9375 8.42188C10.8229 8.77604 10.6719 9.18229 10.4844 9.64062C10.2969 10.099 10.0781 10.6042 9.82812 11.1562C9.57812 11.6979 9.31771 12.2552 9.04688 12.8281ZM24.6875 14.3906C24.1979 14.3906 23.724 14.5156 23.2656 14.7656C22.8177 15.0052 22.4167 15.3281 22.0625 15.7344C21.7188 16.1302 21.4427 16.5833 21.2344 17.0938C21.026 17.5938 20.9219 18.1094 20.9219 18.6406C20.9219 18.8385 20.9375 19.0573 20.9688 19.2969C21 19.526 21.0625 19.7448 21.1562 19.9531C21.2604 20.151 21.4062 20.3177 21.5938 20.4531C21.7812 20.5885 22.0312 20.6562 22.3438 20.6562C22.8229 20.6562 23.2865 20.5312 23.7344 20.2812C24.1927 20.0208 24.599 19.6875 24.9531 19.2812C25.3073 18.8646 25.5885 18.3958 25.7969 17.875C26.0052 17.3542 26.1094 16.8281 26.1094 16.2969C26.1094 16.0885 26.0938 15.875 26.0625 15.6562C26.0417 15.4271 25.9792 15.2188 25.875 15.0312C25.7812 14.8438 25.6406 14.6927 25.4531 14.5781C25.2656 14.4531 25.0104 14.3906 24.6875 14.3906ZM25.5 11.6406C25.8958 11.6406 26.3177 11.6927 26.7656 11.7969C27.224 11.901 27.6458 12.0781 28.0312 12.3281C28.4167 12.5781 28.7344 12.9115 28.9844 13.3281C29.2448 13.7344 29.375 14.2396 29.375 14.8438C29.375 15.1562 29.3333 15.5156 29.25 15.9219C29.1667 16.3177 29.0417 16.7344 28.875 17.1719C28.9792 17.2969 29.099 17.3854 29.2344 17.4375C29.3698 17.4896 29.5156 17.5156 29.6719 17.5156C29.8906 17.5156 30.1302 17.4531 30.3906 17.3281C30.6615 17.2031 30.9375 17.0417 31.2188 16.8438C31.5 16.6458 31.7812 16.4219 32.0625 16.1719C32.3438 15.9219 32.6094 15.6719 32.8594 15.4219C33.1094 15.1719 33.3333 14.9375 33.5312 14.7188C33.7396 14.4896 33.9115 14.2969 34.0469 14.1406C34.1198 14.0677 34.2083 14.0312 34.3125 14.0312C34.4583 14.0312 34.5885 14.1094 34.7031 14.2656C34.8177 14.4115 34.875 14.6198 34.875 14.8906C34.875 15.1615 34.7917 15.474 34.625 15.8281C34.4688 16.1823 34.1719 16.5521 33.7344 16.9375C33.4844 17.2083 33.1979 17.5208 32.875 17.875C32.5521 18.2292 32.2083 18.5625 31.8438 18.875C31.4792 19.1875 31.099 19.4531 30.7031 19.6719C30.3073 19.8906 29.9115 20 29.5156 20C29.2448 20 28.9792 19.9583 28.7188 19.875C28.4688 19.7917 28.2135 19.6562 27.9531 19.4688C27.5781 20.0521 27.151 20.5833 26.6719 21.0625C26.1927 21.5417 25.6562 21.9531 25.0625 22.2969C24.4792 22.6406 23.8438 22.9062 23.1562 23.0938C22.4792 23.2917 21.7552 23.3906 20.9844 23.3906C20.6927 23.3906 20.3542 23.3333 19.9688 23.2188C19.5833 23.1042 19.2135 22.9167 18.8594 22.6562C18.5156 22.3854 18.224 22.0365 17.9844 21.6094C17.7448 21.1823 17.625 20.6615 17.625 20.0469C17.625 19.6302 17.6927 19.1302 17.8281 18.5469C17.9635 17.9635 18.1667 17.3646 18.4375 16.75C18.7188 16.125 19.0677 15.5104 19.4844 14.9062C19.9115 14.2917 20.4167 13.7448 21 13.2656C21.5833 12.776 22.25 12.3854 23 12.0938C23.75 11.7917 24.5833 11.6406 25.5 11.6406ZM38.125 14.4688C37.6354 14.4688 37.1615 14.5938 36.7031 14.8438C36.2448 15.0938 35.8385 15.4219 35.4844 15.8281C35.1302 16.2344 34.849 16.6927 34.6406 17.2031C34.4323 17.7031 34.3281 18.2083 34.3281 18.7188C34.3281 18.9271 34.3385 19.1458 34.3594 19.375C34.3906 19.5938 34.4531 19.7969 34.5469 19.9844C34.6406 20.1719 34.7708 20.3281 34.9375 20.4531C35.1146 20.5781 35.349 20.6406 35.6406 20.6406C35.8698 20.6406 36.1354 20.5417 36.4375 20.3438C36.75 20.1354 37.0677 19.875 37.3906 19.5625C37.724 19.2396 38.0469 18.8906 38.3594 18.5156C38.6719 18.1302 38.9531 17.7552 39.2031 17.3906C39.4531 17.026 39.6562 16.6979 39.8125 16.4062C39.9688 16.1146 40.0469 15.901 40.0469 15.7656C40.0469 15.5677 39.9792 15.3906 39.8438 15.2344C39.7083 15.0677 39.5417 14.9271 39.3438 14.8125C39.1458 14.6979 38.9323 14.6146 38.7031 14.5625C38.4844 14.5 38.2917 14.4688 38.125 14.4688ZM48.9531 18.5C48.7656 18.6771 48.5156 18.9219 48.2031 19.2344C47.8906 19.5469 47.5312 19.8854 47.125 20.25C46.7292 20.6146 46.3021 20.9844 45.8438 21.3594C45.3958 21.724 44.9323 22.0573 44.4531 22.3594C43.9844 22.6615 43.5208 22.9062 43.0625 23.0938C42.6042 23.2917 42.1719 23.3906 41.7656 23.3906C41.401 23.3906 41.0885 23.3125 40.8281 23.1562C40.5677 23 40.349 22.7969 40.1719 22.5469C40.0052 22.2969 39.8802 22.0156 39.7969 21.7031C39.7135 21.3802 39.6719 21.0521 39.6719 20.7188C39.6719 20.5 39.6875 20.2865 39.7188 20.0781C39.75 19.8594 39.8021 19.6562 39.875 19.4688C39.5521 19.9062 39.1823 20.3594 38.7656 20.8281C38.3594 21.2865 37.9167 21.7083 37.4375 22.0938C36.9688 22.4688 36.474 22.776 35.9531 23.0156C35.4427 23.2656 34.9219 23.3906 34.3906 23.3906C34.1198 23.3906 33.8021 23.3333 33.4375 23.2188C33.0833 23.1146 32.7448 22.9375 32.4219 22.6875C32.099 22.4375 31.8281 22.1146 31.6094 21.7188C31.3906 21.3229 31.2812 20.8385 31.2812 20.2656C31.2812 19.8385 31.3438 19.3281 31.4688 18.7344C31.6042 18.1406 31.8021 17.526 32.0625 16.8906C32.3333 16.2448 32.6719 15.6094 33.0781 14.9844C33.4948 14.3594 33.9844 13.8021 34.5469 13.3125C35.1094 12.8125 35.75 12.4115 36.4688 12.1094C37.1875 11.7969 37.9896 11.6406 38.875 11.6406C39.3333 11.6406 39.7344 11.6979 40.0781 11.8125C40.4219 11.9271 40.7135 12.0521 40.9531 12.1875C41.224 12.3542 41.4635 12.5365 41.6719 12.7344C41.849 12.6406 42.0312 12.5521 42.2188 12.4688C42.375 12.3958 42.5365 12.3333 42.7031 12.2812C42.8802 12.2188 43.0312 12.1875 43.1562 12.1875C43.5521 12.1875 43.875 12.2969 44.125 12.5156C44.375 12.7344 44.5 12.974 44.5 13.2344C44.5 13.3073 44.4948 13.3646 44.4844 13.4062C44.4323 13.6042 44.349 13.8542 44.2344 14.1562C44.1302 14.4583 44.0104 14.7969 43.875 15.1719C43.7396 15.5365 43.599 15.9219 43.4531 16.3281C43.3177 16.724 43.1927 17.1146 43.0781 17.5C42.9635 17.8854 42.8698 18.25 42.7969 18.5938C42.724 18.9271 42.6875 19.2135 42.6875 19.4531C42.6875 19.7656 42.7396 20.026 42.8438 20.2344C42.9479 20.4323 43.125 20.5312 43.375 20.5312C43.5312 20.5312 43.7135 20.4844 43.9219 20.3906C44.1406 20.2865 44.375 20.151 44.625 19.9844C44.875 19.8177 45.1302 19.6302 45.3906 19.4219C45.6615 19.2031 45.9219 18.9844 46.1719 18.7656C46.7552 18.2448 47.375 17.651 48.0312 16.9844C48.1979 16.849 48.3594 16.7812 48.5156 16.7812C48.724 16.7812 48.8958 16.8854 49.0312 17.0938C49.1771 17.2917 49.25 17.5156 49.25 17.7656C49.25 18.0573 49.151 18.3021 48.9531 18.5ZM56.8438 19.8281C56.8333 19.849 56.8281 19.875 56.8281 19.9062C56.8281 19.9375 56.8229 19.9635 56.8125 19.9844C56.8125 20.1719 56.8594 20.3698 56.9531 20.5781C57.0469 20.776 57.1979 20.875 57.4062 20.875C57.4896 20.875 57.5521 20.8646 57.5938 20.8438C58.1875 20.6667 58.7865 20.3854 59.3906 20C60.0052 19.6146 60.5938 19.1927 61.1562 18.7344C61.7188 18.276 62.2344 17.8073 62.7031 17.3281C63.1823 16.849 63.5781 16.4219 63.8906 16.0469C64.0365 15.8698 64.1979 15.7812 64.375 15.7812C64.5312 15.7812 64.6667 15.8542 64.7812 16C64.9062 16.1458 64.9688 16.3438 64.9688 16.5938C64.9688 16.7917 64.9115 17.026 64.7969 17.2969C64.6927 17.5677 64.5156 17.8594 64.2656 18.1719C63.651 18.849 63.0208 19.5 62.375 20.125C61.7292 20.75 61.0781 21.3073 60.4219 21.7969C59.7656 22.276 59.1094 22.6615 58.4531 22.9531C57.8073 23.2448 57.1719 23.3906 56.5469 23.3906C55.7865 23.3906 55.1875 23.1771 54.75 22.75C54.3125 22.3125 54.0938 21.6615 54.0938 20.7969C54.0938 20.7448 54.0938 20.6927 54.0938 20.6406C54.0938 20.5781 54.099 20.5208 54.1094 20.4688C53.8698 20.9062 53.5625 21.3073 53.1875 21.6719C52.8125 22.026 52.401 22.3333 51.9531 22.5938C51.5052 22.8438 51.0417 23.0365 50.5625 23.1719C50.0833 23.3177 49.6198 23.3906 49.1719 23.3906C48.7865 23.3906 48.4323 23.3385 48.1094 23.2344C47.7865 23.1302 47.5052 22.9635 47.2656 22.7344C47.0365 22.5052 46.8542 22.2135 46.7188 21.8594C46.5938 21.5052 46.5312 21.0781 46.5312 20.5781C46.5312 19.7031 46.6667 18.875 46.9375 18.0938C47.2083 17.3021 47.5677 16.5781 48.0156 15.9219C48.4635 15.2552 48.974 14.6615 49.5469 14.1406C50.1302 13.6094 50.7292 13.1615 51.3438 12.7969C51.9688 12.4219 52.5885 12.1354 53.2031 11.9375C53.8177 11.7396 54.3802 11.6406 54.8906 11.6406C55.4844 11.6406 55.9948 11.7396 56.4219 11.9375C56.6302 12.0417 56.8229 12.1823 57 12.3594C57.0417 12.2656 57.0833 12.1771 57.125 12.0938C57.2292 11.8438 57.3229 11.6302 57.4062 11.4531C57.4896 11.2656 57.5469 11.1302 57.5781 11.0469C57.6094 10.9531 57.6979 10.7344 57.8438 10.3906C57.9896 10.0469 58.1562 9.64583 58.3438 9.1875C58.5417 8.71875 58.75 8.21875 58.9688 7.6875C59.1979 7.15625 59.4062 6.65625 59.5938 6.1875C59.7812 5.71875 59.9427 5.31771 60.0781 4.98438C60.2135 4.64062 60.2969 4.42188 60.3281 4.32812C60.401 4.06771 60.5 3.81771 60.625 3.57812C60.75 3.32812 60.8958 3.11458 61.0625 2.9375C61.2396 2.75 61.4427 2.60417 61.6719 2.5C61.901 2.38542 62.1615 2.32812 62.4531 2.32812C62.849 2.32812 63.1771 2.41667 63.4375 2.59375C63.6979 2.76042 63.8281 3.08854 63.8281 3.57812C63.8281 3.77604 63.8021 3.97917 63.75 4.1875C63.6979 4.39583 63.6354 4.59896 63.5625 4.79688C63.5 4.99479 63.4271 5.19271 63.3438 5.39062C63.2708 5.57812 63.2031 5.75521 63.1406 5.92188C62.6198 6.96354 62.0729 8.09896 61.5 9.32812C60.9271 10.5469 60.3594 11.776 59.7969 13.0156C59.2344 14.2552 58.6979 15.4635 58.1875 16.6406C57.6771 17.8177 57.2292 18.8802 56.8438 19.8281ZM56.375 13.7188C55.75 13.7396 55.0938 13.875 54.4062 14.125C53.6146 14.3958 52.8906 14.8021 52.2344 15.3438C51.5781 15.875 51.0208 16.5312 50.5625 17.3125C50.1146 18.0938 49.8594 18.9896 49.7969 20C49.7969 20.4167 49.974 20.625 50.3281 20.625C50.7656 20.625 51.1823 20.5365 51.5781 20.3594C51.974 20.1719 52.349 19.9271 52.7031 19.625C53.0677 19.3125 53.4062 18.9583 53.7188 18.5625C54.0312 18.1667 54.3177 17.7552 54.5781 17.3281C54.849 16.901 55.0885 16.4792 55.2969 16.0625C55.5156 15.6354 55.7031 15.2396 55.8594 14.875C55.9115 14.7604 55.9844 14.599 56.0781 14.3906C56.1615 14.1927 56.2604 13.9688 56.375 13.7188ZM66.2188 9.48438C66.2188 9.24479 66.2604 9 66.3438 8.75C66.4375 8.48958 66.5729 8.25521 66.75 8.04688C66.9271 7.83854 67.1458 7.66667 67.4062 7.53125C67.6771 7.39583 67.9948 7.32812 68.3594 7.32812C68.9635 7.32812 69.3854 7.44792 69.625 7.6875C69.8646 7.91667 69.9844 8.20833 69.9844 8.5625C69.9844 8.76042 69.9427 8.97917 69.8594 9.21875C69.7865 9.45833 69.6719 9.68229 69.5156 9.89062C69.3594 10.0885 69.1562 10.2552 68.9062 10.3906C68.6562 10.526 68.3594 10.5938 68.0156 10.5938C67.3698 10.5938 66.9167 10.4948 66.6562 10.2969C66.3958 10.0885 66.25 9.81771 66.2188 9.48438ZM64.5 13C64.6771 12.7083 64.8802 12.5 65.1094 12.375C65.3385 12.25 65.5729 12.1875 65.8125 12.1875C66.2083 12.1875 66.5469 12.3177 66.8281 12.5781C67.1198 12.8281 67.2656 13.151 67.2656 13.5469C67.2552 13.6406 67.2396 13.7344 67.2188 13.8281C67.2083 13.9219 67.1771 14.0156 67.125 14.1094C66.9792 14.3802 66.8594 14.6094 66.7656 14.7969C66.6719 14.9844 66.5833 15.1615 66.5 15.3281C66.4271 15.4844 66.3542 15.6406 66.2812 15.7969C66.2083 15.9531 66.1198 16.1406 66.0156 16.3594C65.8906 16.6198 65.75 16.9062 65.5938 17.2188C65.4375 17.5208 65.2865 17.8333 65.1406 18.1562C65.0052 18.4792 64.8854 18.7969 64.7812 19.1094C64.6875 19.4219 64.6406 19.7083 64.6406 19.9688C64.6406 20.25 64.7083 20.4375 64.8438 20.5312C64.9896 20.6146 65.1927 20.6562 65.4531 20.6562C65.7448 20.6562 66.0469 20.5938 66.3594 20.4688C66.6823 20.3438 67.0052 20.1823 67.3281 19.9844C67.651 19.7865 67.9688 19.5625 68.2812 19.3125C68.5938 19.0521 68.8854 18.7917 69.1562 18.5312C69.4375 18.2708 69.6927 18.0208 69.9219 17.7812C70.1615 17.5417 70.3594 17.3281 70.5156 17.1406C70.724 16.9427 70.9323 16.8438 71.1406 16.8438C71.3281 16.8438 71.4792 16.9271 71.5938 17.0938C71.7188 17.2604 71.7812 17.474 71.7812 17.7344C71.7812 17.974 71.7188 18.2292 71.5938 18.5C71.4792 18.7708 71.2865 19.026 71.0156 19.2656C70.4844 19.8073 69.9427 20.3281 69.3906 20.8281C68.8385 21.3177 68.2708 21.7552 67.6875 22.1406C67.1146 22.5156 66.5365 22.8177 65.9531 23.0469C65.3698 23.276 64.7812 23.3906 64.1875 23.3906C63.3438 23.3906 62.6771 23.1771 62.1875 22.75C61.7083 22.3125 61.4688 21.6354 61.4688 20.7188C61.4688 20.2396 61.5365 19.7708 61.6719 19.3125C61.8073 18.8542 61.9688 18.4115 62.1562 17.9844C62.3438 17.5469 62.5417 17.1302 62.75 16.7344C62.9583 16.3281 63.1354 15.9427 63.2812 15.5781C63.3333 15.4427 63.4219 15.2344 63.5469 14.9531C63.6823 14.6719 63.8229 14.3854 63.9688 14.0938C64.1354 13.75 64.3125 13.3854 64.5 13ZM76.4062 13.7812C76.3542 13.7708 76.3073 13.7656 76.2656 13.7656C76.224 13.7656 76.1771 13.7656 76.125 13.7656C75.7292 13.7656 75.3594 13.8438 75.0156 14C74.6719 14.1562 74.3542 14.3646 74.0625 14.625C73.7812 14.875 73.526 15.1615 73.2969 15.4844C73.0781 15.8073 72.8802 16.1302 72.7031 16.4531C72.526 16.7656 72.375 17.0677 72.25 17.3594C72.1354 17.651 72.0469 17.8958 71.9844 18.0938C72.349 17.9062 72.724 17.6927 73.1094 17.4531C73.5052 17.2135 73.875 16.9844 74.2188 16.7656C74.5625 16.5469 74.8594 16.349 75.1094 16.1719C75.3698 15.9948 75.5521 15.875 75.6562 15.8125C76.125 15.5208 76.4479 15.25 76.625 15C76.8021 14.7396 76.8906 14.5156 76.8906 14.3281C76.8906 14.1719 76.8385 14.0469 76.7344 13.9531C76.6406 13.8594 76.5312 13.8021 76.4062 13.7812ZM76.9688 11.625C77.8333 11.625 78.4792 11.8333 78.9062 12.25C79.3333 12.6667 79.5469 13.2448 79.5469 13.9844C79.5469 14.4219 79.4323 14.8802 79.2031 15.3594C78.974 15.8385 78.5781 16.3281 78.0156 16.8281C77.4531 17.3177 76.6979 17.8229 75.75 18.3438C74.8125 18.8542 73.6354 19.3698 72.2188 19.8906C72.2708 20.1927 72.4323 20.4323 72.7031 20.6094C72.974 20.776 73.3333 20.8594 73.7812 20.8594C74.2604 20.8594 74.7708 20.7917 75.3125 20.6562C75.8646 20.5104 76.4062 20.3281 76.9375 20.1094C77.4792 19.8906 78.0052 19.6562 78.5156 19.4062C79.026 19.1458 79.4844 18.901 79.8906 18.6719C80.3073 18.4427 80.651 18.2448 80.9219 18.0781C81.2031 17.9115 81.3906 17.8073 81.4844 17.7656C81.5781 17.7031 81.6615 17.6667 81.7344 17.6562C81.8177 17.6458 81.8906 17.6406 81.9531 17.6406C82.0781 17.6406 82.1823 17.6719 82.2656 17.7344C82.349 17.7865 82.4167 17.8542 82.4688 17.9375C82.5312 18.0104 82.5729 18.0938 82.5938 18.1875C82.6146 18.2708 82.625 18.3438 82.625 18.4062C82.625 18.5 82.6146 18.6146 82.5938 18.75C82.5729 18.875 82.4948 19.0208 82.3594 19.1875C82.3073 19.2396 82.1302 19.3802 81.8281 19.6094C81.5365 19.8385 81.1562 20.1094 80.6875 20.4219C80.2188 20.7344 79.6719 21.0677 79.0469 21.4219C78.4323 21.7656 77.776 22.0833 77.0781 22.375C76.3906 22.6667 75.6719 22.9062 74.9219 23.0938C74.1719 23.2917 73.4323 23.3906 72.7031 23.3906C72.0781 23.3906 71.5208 23.2708 71.0312 23.0312C70.5521 22.7917 70.1406 22.4688 69.7969 22.0625C69.4635 21.6562 69.2083 21.1875 69.0312 20.6562C68.8542 20.125 68.7656 19.5677 68.7656 18.9844C68.7656 18.5365 68.8542 18.0469 69.0312 17.5156C69.2083 16.974 69.4635 16.4323 69.7969 15.8906C70.1302 15.349 70.5365 14.8229 71.0156 14.3125C71.5052 13.7917 72.0521 13.3333 72.6562 12.9375C73.2604 12.5417 73.9219 12.224 74.6406 11.9844C75.3698 11.7448 76.1458 11.625 76.9688 11.625Z" fill="white"/>
</svg>
